#define black_pressed_width 8
#define black_pressed_height 25
static unsigned char black_pressed_bits[] = {
   0x14, 0x2a, 0x14, 0x2a, 0x14, 0x2a, 0x14, 0x2a, 0x14, 0x2a, 0x14, 0x2a,
   0x14, 0x2a, 0x14, 0x2a, 0x14, 0x2a, 0x14, 0x2a, 0x14, 0x2a, 0x14, 0x2a,
   0x14 };
