#define left_pressed_width 7
#define left_pressed_height 40
static unsigned char left_pressed_bits[] = {
   0x05, 0x0a, 0x05, 0x0a, 0x05, 0x0a, 0x05, 0x0a, 0x05, 0x0a, 0x05, 0x0a,
   0x05, 0x0a, 0x05, 0x0a, 0x05, 0x0a, 0x05, 0x0a, 0x05, 0x0a, 0x05, 0x0a,
   0x05, 0x0a, 0x55, 0x2a, 0x55, 0x2a, 0x55, 0x2a, 0x55, 0x2a, 0x55, 0x2a,
   0x55, 0x2a, 0x55, 0x2a };
