#define middle_pressed_width 7
#define middle_pressed_height 40
static unsigned char middle_pressed_bits[] = {
   0x00, 0x08, 0x00, 0x08, 0x00, 0x08, 0x00, 0x08, 0x00, 0x08, 0x00, 0x08,
   0x00, 0x08, 0x00, 0x08, 0x00, 0x08, 0x00, 0x08, 0x00, 0x08, 0x00, 0x08,
   0x00, 0x08, 0x55, 0x2a, 0x55, 0x2a, 0x55, 0x2a, 0x55, 0x2a, 0x55, 0x2a,
   0x55, 0x2a, 0x55, 0x2a };
