#define right_pressed_width 8
#define right_pressed_height 40
static unsigned char right_pressed_bits[] = {
   0x50, 0x28, 0x50, 0x28, 0x50, 0x28, 0x50, 0x28, 0x50, 0x28, 0x50, 0x28,
   0x50, 0x28, 0x50, 0x28, 0x50, 0x28, 0x50, 0x28, 0x50, 0x28, 0x50, 0x28,
   0x50, 0x28, 0x55, 0x2a, 0x55, 0x2a, 0x55, 0x2a, 0x55, 0x2a, 0x55, 0x2a,
   0x55, 0x2a, 0x55, 0x2a };
