#define keyboard_width 57
#define keyboard_height 41
static unsigned char keyboard_bits[] = {
   0x00, 0x00, 0x00, 0x00, 0x00, 0x10, 0x00, 0x00, 0x00, 0x80, 0x02, 0x0a,
   0x00, 0x00, 0xa0, 0x00, 0x00, 0x40, 0x01, 0x14, 0x00, 0x10, 0x50, 0x00,
   0x00, 0x80, 0x02, 0x0a, 0x00, 0x00, 0xa0, 0x00, 0x00, 0x40, 0x01, 0x14,
   0x00, 0x10, 0x50, 0x00, 0x00, 0x80, 0x02, 0x0a, 0x00, 0x00, 0xa0, 0x00,
   0x00, 0x40, 0x01, 0x14, 0x00, 0x10, 0x50, 0x00, 0x00, 0x80, 0x02, 0x0a,
   0x00, 0x00, 0xa0, 0x00, 0x00, 0x40, 0x01, 0x14, 0x00, 0x10, 0x50, 0x00,
   0x00, 0x80, 0x02, 0x0a, 0x00, 0x00, 0xa0, 0x00, 0x00, 0x40, 0x01, 0x14,
   0x00, 0x10, 0x50, 0x00, 0x00, 0x80, 0x02, 0x0a, 0x00, 0x00, 0xa0, 0x00,
   0x00, 0x40, 0x01, 0x14, 0x00, 0x10, 0x50, 0x00, 0x00, 0x80, 0x02, 0x0a,
   0x00, 0x00, 0xa0, 0x00, 0x00, 0x40, 0x01, 0x14, 0x00, 0x10, 0x50, 0x00,
   0x00, 0x80, 0x02, 0x0a, 0x00, 0x00, 0xa0, 0x00, 0x00, 0x40, 0x01, 0x14,
   0x00, 0x10, 0x50, 0x00, 0x00, 0x80, 0x02, 0x0a, 0x00, 0x00, 0xa0, 0x00,
   0x00, 0x40, 0x01, 0x14, 0x00, 0x10, 0x50, 0x00, 0x00, 0x80, 0x02, 0x0a,
   0x00, 0x00, 0xa0, 0x00, 0x00, 0x40, 0x01, 0x14, 0x00, 0x10, 0x50, 0x00,
   0x00, 0x80, 0x02, 0x0a, 0x00, 0x00, 0xa0, 0x00, 0x00, 0x40, 0x01, 0x14,
   0x00, 0x10, 0x50, 0x00, 0x00, 0x80, 0x02, 0x0a, 0x00, 0x00, 0xa0, 0x00,
   0x00, 0x40, 0x01, 0x14, 0x00, 0x10, 0x50, 0x00, 0x00, 0x00, 0x00, 0x0a,
   0x00, 0x00, 0xa0, 0x00, 0x00, 0x00, 0x00, 0x14, 0x00, 0x10, 0x50, 0x00,
   0x00, 0x00, 0x00, 0xaa, 0x00, 0xaa, 0xaa, 0x00, 0x00, 0x00, 0x00, 0x54,
   0x00, 0x54, 0x54, 0x00, 0x00, 0x00, 0x00, 0xaa, 0x00, 0xaa, 0xaa, 0x00,
   0x00, 0x00, 0x00, 0x54, 0x00, 0x54, 0x54, 0x00, 0x00, 0x00, 0x00, 0xaa,
   0x00, 0xaa, 0xaa, 0x00, 0x00, 0x00, 0x00, 0x54, 0x00, 0x54, 0x54, 0x00,
   0x00, 0x00, 0x00, 0xaa, 0x00, 0xaa, 0xaa, 0x00, 0x00, 0x00, 0x00, 0x54,
   0x00, 0x54, 0x54, 0x00, 0x00, 0x00, 0x00, 0xaa, 0x00, 0xaa, 0xaa, 0x00,
   0x00, 0x00, 0x00, 0x54, 0x00, 0x54, 0x54, 0x00, 0x00, 0x00, 0x00, 0xaa,
   0x00, 0xaa, 0xaa, 0x00, 0x00, 0x00, 0x00, 0x54, 0x00, 0x54, 0x54, 0x00,
   0x00, 0x00, 0x00, 0xaa, 0x00, 0xaa, 0xaa, 0x00, 0x00, 0x00, 0x00, 0x00,
   0x00, 0x00, 0x00, 0x00 };
