#define Layer_201_width 30
#define Layer_201_height 17
static unsigned char Layer_201_bits[] = {
   0x18, 0x00, 0x00, 0x00, 0x24, 0x00, 0x00, 0x00, 0x04, 0x00, 0x00, 0x30,
   0x02, 0x00, 0x00, 0x00, 0x02, 0x00, 0x00, 0x00, 0x02, 0x00, 0x00, 0x00,
   0x01, 0x00, 0x00, 0x00, 0x01, 0x00, 0x00, 0x10, 0x01, 0x7c, 0x38, 0x10,
   0x02, 0x54, 0x38, 0x20, 0x66, 0x84, 0x64, 0x20, 0x18, 0x84, 0x5c, 0x20,
   0x00, 0x00, 0x80, 0x20, 0x00, 0x00, 0x00, 0x20, 0x00, 0x00, 0x00, 0x20,
   0x00, 0x00, 0x00, 0x10, 0x00, 0x00, 0x80, 0x0f };
